<svg width="320" height="103" viewBox="0 0 320 103" fill="none" xmlns="http://www.w3.org/2000/svg">
<path fill-rule="evenodd" clip-rule="evenodd" d="M44.3452 0.462595C34.5842 1.55259 22.5182 7.57659 14.9992 15.1136C-9.38478 39.5536 -3.17177 80.4646 27.3462 96.4116C36.6782 101.289 41.3822 102.414 52.3472 102.391C91.3812 102.311 115.722 62.4676 98.1542 27.4116C96.6092 24.3286 92.6452 19.0646 89.3452 15.7146C77.0302 3.21059 62.8262 -1.60341 44.3452 0.462595ZM67.8452 11.1356C78.7572 15.3106 88.6452 25.1696 93.0402 36.2546C96.1802 44.1746 96.1262 58.4476 92.9262 66.5986C86.6822 82.4986 71.8662 93.0686 54.4602 94.0386C31.1602 95.3386 12.0162 79.6506 8.74922 56.5806C5.79422 35.7176 19.4742 15.6726 40.8452 9.5506C47.2602 7.7126 61.0092 8.52059 67.8452 11.1356ZM33.3722 28.4516C33.1252 29.1686 32.7922 31.3296 32.6342 33.2546C32.4042 36.0406 31.8762 36.8216 30.0432 37.0806C27.9642 37.3756 27.7712 37.8586 28.0432 42.0806C28.2962 45.9966 28.6962 46.8046 30.5082 47.0626C32.5502 47.3536 32.6902 47.9806 33.0082 58.2956C33.3372 68.9756 33.4142 69.2906 36.4292 72.3026C39.1732 75.0446 40.2182 75.4036 45.9292 75.5686L52.3452 75.7546V70.7546C52.3452 65.8026 52.3122 65.7496 48.8452 65.2546L45.3452 64.7546L45.0572 56.0676L44.7692 47.3796L48.5572 47.0676C52.3082 46.7576 52.3482 46.7086 52.6472 42.0676L52.9492 37.3816L49.1472 37.0676C45.4412 36.7626 45.3322 36.6416 44.8452 32.2546L44.3452 27.7546L39.0842 27.4516C35.4372 27.2426 33.6842 27.5486 33.3722 28.4516ZM61.8142 28.7926C60.2072 30.7276 61.2002 57.7726 62.9552 59.8866C64.6222 61.8956 70.5772 61.6346 71.6832 59.5046C72.1832 58.5416 72.9072 51.6316 73.2912 44.1486C73.9032 32.2536 73.7842 30.3366 72.3462 28.8986C70.2432 26.7956 63.5272 26.7276 61.8142 28.7926ZM122.512 27.9216C122.145 28.2876 121.845 30.2816 121.845 32.3516C121.845 35.4936 121.473 36.1686 119.595 36.4346C117.642 36.7126 117.345 37.3496 117.345 41.2546C117.345 45.1596 117.642 45.7966 119.595 46.0746C121.747 46.3796 121.845 46.8046 121.845 55.8566C121.845 71.0716 124.961 75.2546 136.295 75.2546H141.845V70.2546C141.845 65.4126 141.754 65.2546 138.967 65.2546C134.576 65.2546 133.722 63.4026 134.051 54.5996L134.345 46.7546L138.147 46.4416L141.949 46.1276L141.647 41.4416C141.356 36.9206 141.221 36.7366 137.845 36.2546C134.535 35.7816 134.328 35.5246 134.038 31.5046L133.73 27.2546H128.454C125.552 27.2546 122.878 27.5546 122.512 27.9216ZM198.845 31.2796C198.845 34.6526 198.44 35.4576 196.345 36.2546C194.187 37.0756 193.845 37.8236 193.845 41.7296C193.845 45.8466 194.063 46.2546 196.259 46.2546C198.651 46.2546 198.676 46.3576 199.009 57.7346C199.33 68.7056 199.466 69.3356 202.084 71.9516C204.442 74.3066 205.81 74.7436 211.894 75.0876L218.964 75.4866L218.655 70.6206C218.354 65.8966 218.243 65.7396 214.845 65.2546L211.345 64.7546V55.7546V46.7546L214.845 46.2546C218.252 45.7676 218.345 45.6356 218.345 41.2546C218.345 36.7766 218.327 36.7526 214.595 36.4446C210.871 36.1356 210.845 36.1026 210.845 31.6946V27.2546H204.845H198.845V31.2796ZM155.42 38.5206C144.693 44.6256 143.727 64.0866 153.732 72.5066C158.238 76.2976 163.023 76.9476 169.703 74.6776C173.821 73.2776 175.299 73.1166 175.604 74.0326C175.864 74.8126 178.16 75.2546 181.95 75.2546H187.888L187.617 56.0046L187.345 36.7546L182.489 36.4456C179.061 36.2276 177.103 36.6166 175.83 37.7686C174.182 39.2596 173.766 39.2646 170.986 37.8276C166.635 35.5776 160.08 35.8696 155.42 38.5206ZM232.26 37.6756C227.698 39.6626 224.845 43.8226 224.845 48.4886C224.845 54.1516 228.753 57.5266 237.912 59.7706C245.174 61.5506 247.012 63.1436 244.834 65.7676C242.982 67.9996 239.28 67.5626 236.25 64.7546C234.226 62.8776 232.459 62.2546 229.168 62.2546C224.079 62.2546 222.822 63.9676 224.962 67.9856C227.812 73.3346 236.952 76.8406 245.119 75.7166C250.919 74.9196 256.66 70.3346 256.967 66.2546C257.555 58.4616 255.137 55.8006 244.164 52.1616C238.046 50.1326 236.345 49.1536 236.345 47.6616C236.345 44.7506 243.282 44.3806 245.041 47.1966C246.745 49.9256 256.845 50.2906 256.845 47.6226C256.845 44.7056 252.895 39.5056 249.428 37.8606C245.345 35.9236 236.504 35.8286 232.26 37.6756ZM264.845 50.3036C264.845 69.3666 266.638 73.0726 276.988 75.3976C280.271 76.1356 282.248 75.9526 286.173 74.5466C290.002 73.1746 291.272 73.0476 291.593 74.0046C291.865 74.8176 294.089 75.2546 297.95 75.2546H303.888L303.617 56.0046L303.345 36.7546H297.845H292.345L291.738 49.7546C291.404 56.9046 291.066 62.8896 290.988 63.0556C290.325 64.4526 283.578 66.1036 281.602 65.3526C277.417 63.7606 276.921 62.1526 276.627 49.1906L276.345 36.7546L270.595 36.4546L264.845 36.1546V50.3036ZM172.922 49.1776C178.904 55.1596 175.5 65.2546 167.501 65.2546C162.47 65.2546 159.749 62.5776 159.121 57.0126C158.647 52.8076 158.895 52.0516 161.643 49.3026C165.565 45.3806 169.086 45.3416 172.922 49.1776ZM63.8452 67.2546C62.7452 68.3546 61.8452 69.9296 61.8452 70.7546C61.8452 72.6016 65.3712 76.2546 67.1542 76.2546C68.9472 76.2546 71.4352 74.1296 72.1952 71.9486C72.6072 70.7676 71.9792 69.2976 70.3802 67.6986C67.4152 64.7336 66.4332 64.6666 63.8452 67.2546ZM310.5 67.0836C308.349 69.4606 308.405 71.5456 310.674 73.5996C313.315 75.9896 316.548 75.6376 318.437 72.7546C319.954 70.4386 319.954 70.0706 318.437 67.7546C316.489 64.7826 312.86 64.4756 310.5 67.0836ZM68.7842 71.8276C67.5092 73.3636 64.8452 72.6216 64.8452 70.7306C64.8452 68.9826 67.0352 68.2786 68.6072 69.5216C69.5262 70.2486 69.5742 70.8756 68.7842 71.8276ZM316.595 70.0036C317.142 71.6466 314.009 72.8186 312.665 71.4746C312.09 70.8996 311.937 69.9146 312.325 69.2866C313.209 67.8566 316.039 68.3326 316.595 70.0036Z" fill="white"/>
</svg>
